<?xml version="1.0" encoding="iso-8859-1"?>
<!-- Generator: Adobe Illustrator 19.0.0, SVG Export Plug-In . SVG Version: 6.00 Build 0)  -->
<svg version="1.1" id="Capa_1" xmlns="http://www.w3.org/2000/svg" xmlns:xlink="http://www.w3.org/1999/xlink" x="0px" y="0px"
	 viewBox="0 0 468.293 468.293" style="enable-background:new 0 0 468.293 468.293;" xml:space="preserve">
<path style="fill:#647989;" d="M403.963,390.943H64.33c-10.345,0-18.732-8.386-18.732-18.732V222.118h377.096v150.094
	C422.694,382.557,414.308,390.943,403.963,390.943z"/>
<polygon style="fill:#1A76A1;" points="348.117,141.545 120.176,141.545 45.598,222.118 422.694,222.118 "/>
<rect x="128.562" y="326.094" style="fill:#3B566A;" width="211.175" height="64.849"/>
<rect x="142.711" y="57.319" style="fill:#647989;" width="182.884" height="108.869"/>
<polygon style="fill:#3B566A;" points="325.581,166.19 142.712,166.19 119.991,185.918 348.301,185.918 "/>
<rect x="158.726" style="fill:#E0E5E8;" width="150.853" height="166.188"/>
<polygon style="fill:#1A76A1;" points="339.733,468.293 128.559,468.293 158.783,358.518 309.51,358.518 "/>
<polygon style="fill:#E0E5E8;" points="147.557,453.211 170.757,358.518 297.536,358.518 320.736,453.211 "/>
<circle style="fill:#FAD362;" cx="87.009" cy="256.524" r="15.61"/>
<circle style="fill:#4EBD9E;" cx="138.721" cy="256.524" r="15.61"/>
<g>
</g>
<g>
</g>
<g>
</g>
<g>
</g>
<g>
</g>
<g>
</g>
<g>
</g>
<g>
</g>
<g>
</g>
<g>
</g>
<g>
</g>
<g>
</g>
<g>
</g>
<g>
</g>
<g>
</g>
</svg>
